<?xml version="1.0" encoding="UTF-8"?>
<svg xmlns="http://www.w3.org/2000/svg"
     width="480"
     height="320">
  <polygon points="300,60 460,60 460,300 380,300 380,220 100,220 100,140 300,140 300,60" fill="lightblue" stroke="navy" stroke-width="2"/>
  <circle cx="300" cy="60" r="4" fill="red"/>
  <circle cx="460" cy="60" r="4" fill="red"/>
  <circle cx="460" cy="300" r="4" fill="red"/>
  <circle cx="380" cy="300" r="4" fill="red"/>
  <circle cx="380" cy="220" r="4" fill="red"/>
  <circle cx="100" cy="220" r="4" fill="red"/>
  <circle cx="100" cy="140" r="4" fill="red"/>
  <circle cx="300" cy="140" r="4" fill="red"/>
  <text x="305" y="55" font-size="10" fill="black">(7,1)</text>
  <text x="465" y="55" font-size="10" fill="black">(11,1)</text>
  <text x="465" y="295" font-size="10" fill="black">(11,7)</text>
  <text x="385" y="295" font-size="10" fill="black">(9,7)</text>
  <text x="385" y="215" font-size="10" fill="black">(9,5)</text>
  <text x="105" y="215" font-size="10" fill="black">(2,5)</text>
  <text x="105" y="135" font-size="10" fill="black">(2,3)</text>
  <text x="305" y="135" font-size="10" fill="black">(7,3)</text>
</svg>
